<svg id="Layer_2" data-name="Layer 2" xmlns="http://www.w3.org/2000/svg" viewBox="0 0 44 35"><defs><style>.cls-1{fill:none;stroke:#cfbba7;stroke-linecap:round;stroke-linejoin:round;}</style></defs><path class="cls-1" d="M15,31h4.5A3.5,3.5,0,0,0,23,27.5h0A3.5,3.5,0,0,0,19.5,24h-1A3.5,3.5,0,0,1,15,20.5h0A3.5,3.5,0,0,1,18.5,17H23" transform="translate(-1.5 -6.5)"/><line class="cls-1" x1="17.5" y1="7.5" x2="17.5" y2="10.5"/><line class="cls-1" x1="17.5" y1="27.5" x2="17.5" y2="24.5"/><circle class="cls-1" cx="17.5" cy="17.5" r="17"/><path class="cls-1" d="M19,7h9a17,17,0,0,1,0,34H19" transform="translate(-1.5 -6.5)"/></svg>