<svg id="Layer_2" data-name="Layer 2" xmlns="http://www.w3.org/2000/svg" viewBox="0 0 45 33"><defs><style>.cls-1{fill:none;stroke:#cfbba7;stroke-linecap:round;stroke-linejoin:round;}</style></defs><rect class="cls-1" x="0.5" y="0.5" width="44" height="32" rx="4"/><path class="cls-1" d="M37,8h0a9,9,0,0,0,9,9h0" transform="translate(-1.5 -7.5)"/><path class="cls-1" d="M11,8h0a9,9,0,0,1-9,9H2" transform="translate(-1.5 -7.5)"/><path class="cls-1" d="M37,40h0a9,9,0,0,1,9-9h0" transform="translate(-1.5 -7.5)"/><path class="cls-1" d="M11,40h0a9,9,0,0,0-9-9H2" transform="translate(-1.5 -7.5)"/><polygon class="cls-1" points="22.5 8.26 25.18 13.69 31.16 14.55 26.83 18.78 27.85 24.74 22.5 21.92 17.15 24.74 18.17 18.78 13.84 14.55 19.82 13.69 22.5 8.26"/></svg>