<svg id="Layer_2" data-name="Layer 2" xmlns="http://www.w3.org/2000/svg" viewBox="0 0 41 45"><defs><style>.cls-1{fill:none;stroke:#cfbba7;stroke-linecap:round;stroke-linejoin:round;}</style></defs><path class="cls-1" d="M20,31h4.5A3.5,3.5,0,0,0,28,27.5h0A3.5,3.5,0,0,0,24.5,24h-1A3.5,3.5,0,0,1,20,20.5h0A3.5,3.5,0,0,1,23.5,17H28" transform="translate(-3.5 -1.5)"/><line class="cls-1" x1="20.5" y1="12.5" x2="20.5" y2="15.5"/><line class="cls-1" x1="20.5" y1="32.5" x2="20.5" y2="29.5"/><path class="cls-1" d="M44,13c0,10-6,29-20,33C10,42,4,23,4,13c8-1,16-4,20-11C28,9,36,12,44,13Z" transform="translate(-3.5 -1.5)"/></svg>